HIERARCHY
ROOT Hips
{
  OFFSET 179.979 97.3047 303.174
  CHANNELS 6 Xposition Yposition Zposition Zrotation Xrotation Yrotation
  JOINT Spine
  {
    OFFSET 0.000859786 9.92346 -1.22733
    CHANNELS 3 Zrotation Xrotation Yrotation
    JOINT Spine1
    {
      OFFSET 0 11.732 0
      CHANNELS 3 Zrotation Xrotation Yrotation
      JOINT Spine2
      {
        OFFSET 0 13.4588 0
        CHANNELS 3 Zrotation Xrotation Yrotation
        JOINT Neck
        {
          OFFSET 2.54812e-05 15.0278 0.877907
          CHANNELS 3 Zrotation Xrotation Yrotation
          JOINT Head
          {
            OFFSET 0 10.3218 3.14243
            CHANNELS 3 Zrotation Xrotation Yrotation
            End Site
            {
              OFFSET 0 0 0
            }
          }
        }
        JOINT LeftShoulder
        {
          OFFSET 6.10582 9.10629 0.757062
          CHANNELS 3 Zrotation Xrotation Yrotation
          JOINT LeftArm
          {
            OFFSET 0 12.9223 0
            CHANNELS 3 Zrotation Xrotation Yrotation
            JOINT LeftForeArm
            {
              OFFSET 0 27.4047 0
              CHANNELS 3 Zrotation Xrotation Yrotation
              JOINT LeftHand
              {
                OFFSET -1.28204e-05 27.6145 0
                CHANNELS 3 Zrotation Xrotation Yrotation
                End Site
                {
                  OFFSET 0 0 0
                }
              }
            }
          }
        }
        JOINT RightShoulder
        {
          OFFSET -6.1057 9.10638 0.757076
          CHANNELS 3 Zrotation Xrotation Yrotation
          JOINT RightArm
          {
            OFFSET 0 12.9223 0
            CHANNELS 3 Zrotation Xrotation Yrotation
            JOINT RightForeArm
            {
              OFFSET 0 27.4047 0
              CHANNELS 3 Zrotation Xrotation Yrotation
              JOINT RightHand
              {
                OFFSET 1.28428e-05 27.6145 1.44975e-05
                CHANNELS 3 Zrotation Xrotation Yrotation
                End Site
                {
                  OFFSET 0 0 0
                }
              }
            }
          }
        }
      }
    }
  }
  JOINT LeftUpLeg
  {
    OFFSET 9.12387 -6.65719 -0.0554031
    CHANNELS 3 Zrotation Xrotation Yrotation
    JOINT LeftLeg
    {
      OFFSET 0 40.5994 0
      CHANNELS 3 Zrotation Xrotation Yrotation
      JOINT LeftFoot
      {
        OFFSET 0 42.099 0
        CHANNELS 3 Zrotation Xrotation Yrotation
        JOINT LeftToeBase
        {
          OFFSET 0 15.7216 0
          CHANNELS 3 Zrotation Xrotation Yrotation
          End Site
          {
            OFFSET 0 0 0
          }
        }
      }
    }
  }
  JOINT RightUpLeg
  {
    OFFSET -9.12503 -6.6556 -0.0553527
    CHANNELS 3 Zrotation Xrotation Yrotation
    JOINT RightLeg
    {
      OFFSET 0 40.5994 0
      CHANNELS 3 Zrotation Xrotation Yrotation
      JOINT RightFoot
      {
        OFFSET 0 42.099 0
        CHANNELS 3 Zrotation Xrotation Yrotation
        JOINT RightToeBase
        {
          OFFSET 0 15.7216 0
          CHANNELS 3 Zrotation Xrotation Yrotation
          End Site
          {
            OFFSET 0 0 0
          }
        }
      }
    }
  }
}
MOTION
Frames:	15
Frame Time:	0.0333333
210.761 90.6382 -450.534 -2.87982 0.793095 -60.5373 -0.127545 1.39999 0.941595 -0.410715 16.7459 1.96642 -0.655917 23.3363 2.05101 7.75073 5.94026 3.17691 -11.0433 -35.5916 4.4739 -99.9669 -14.2193 90.3724 26.668 58.2897 33.5814 34.3673 -19.0255 -0.861987 -3.41954 -15.8809 -2.03821 106.121 -7.3896 -92.0583 -34.3082 43.9504 -22.0772 -44.6185 -21.906 1.24403 -0.513929 -4.5792 -17.3919 -165.201 34.9131 -11.2344 -4.58045 -29.2041 -5.36586 3.55006 71.6775 -7.88034 -0.965268 26.367 -3.60229 179.234 8.24012 9.45012 -2.71262 -49.2217 -2.23373 -173.199 82.3521 172.765 0.963561 26.3682 3.55536 
208.673 89.077 -448.51 -3.92081 1.40439 -62.0895 -0.170285 1.67936 1.21716 -0.548846 17.302 2.5482 -0.86831 23.8897 2.66113 7.86269 5.60303 3.52932 -10.8479 -36.367 4.7977 -99.8101 -14.2213 90.3704 26.7735 58.2787 33.7411 34.2333 -18.9367 -0.858723 -2.83435 -14.2542 -1.79593 106.075 -6.71989 -92.2122 -36.1471 43.1636 -21.3294 -44.7387 -22.0196 1.24638 -0.582971 -3.16393 -19.4961 -163.427 35.6714 -9.01853 -4.59033 -23.8335 -5.84403 5.28514 72.8617 -10.2204 -0.965268 26.367 -3.60229 179.891 7.24488 7.91464 -3.26469 -52.4667 -2.59116 -174.397 80.1578 174.696 0.963561 26.3682 3.55536 
206.511 87.3853 -446.417 -4.64741 1.80005 -63.4519 -0.350416 1.9517 1.39689 -0.960427 17.8401 2.99271 -1.33737 24.4252 3.12907 7.91249 4.90833 4.03314 -10.2925 -36.9198 5.30394 -99.6771 -14.5079 90.3179 27.1199 58.1045 33.8997 34.027 -18.7827 -0.852992 -2.5015 -13.035 -1.36083 106.036 -6.1238 -92.3486 -37.8567 42.8533 -20.0773 -45.1623 -22.072 1.24949 -0.80428 -2.99394 -21.1418 -162.411 36.6878 -5.99172 -4.52678 -20.6911 -6.12752 8.09917 74.1553 -12.4787 -0.965268 26.367 -3.60229 179.997 6.2136 6.53756 -3.6938 -55.7154 -2.92648 -175.22 77.9116 176.343 0.963561 26.3682 3.55536 
204.433 85.7845 -444.374 -4.8116 1.76451 -64.7894 -0.714352 2.17645 1.55794 -1.75362 18.2751 3.47836 -2.1933 24.8569 3.64016 8.07607 4.3928 4.34853 -9.72344 -37.3971 5.67056 -99.5675 -14.3793 90.341 27.6779 57.6927 33.8109 33.5725 -18.4374 -0.840095 -2.33106 -12.3662 -1.29239 105.969 -5.48501 -92.4918 -38.8997 43.1385 -18.8372 -45.7047 -22.3947 1.2668 -1.17755 -3.70343 -21.8534 -161.801 38.2698 -3.97262 -4.78869 -20.8142 -6.01152 6.50086 73.1629 -11.178 -0.965268 26.367 -3.60229 179.411 5.44516 5.11806 -4.24249 -58.7596 -3.36383 -175.573 76.027 177.489 0.963561 26.3682 3.55536 
202.514 84.4126 -442.481 -3.95257 1.07728 -65.5847 -1.28981 2.27763 1.51135 -2.9504 18.4553 3.62866 -3.40956 25.036 3.79854 7.75295 4.16269 4.70304 -8.87391 -38.2913 5.97295 -99.4861 -14.1845 90.3756 28.3429 57.2148 33.7304 32.943 -18.196 -0.833305 -2.00685 -11.9932 -1.0002 105.761 -4.96524 -92.5936 -39.6924 43.9923 -17.3775 -46.305 -22.5344 1.27474 -1.33609 -5.58317 -21.7466 -162.714 42.175 -3.87286 -4.65306 -26.1 -5.86384 2.70351 62.9885 -6.57253 -0.965268 26.367 -3.60229 177.962 5.85054 3.9048 -5.32853 -62.1751 -4.04312 -175.106 75.1629 177.926 0.963561 26.3682 3.55536 
200.5 82.9396 -440.413 -3.1238 0.359516 -65.4472 -1.91483 2.50891 1.38452 -4.24618 18.8933 3.64549 -4.7089 25.4739 3.81951 8.00939 3.26178 4.84092 -8.68 -38.941 6.09526 -99.3524 -13.5454 90.4885 29.7027 55.8746 32.9242 32.3309 -17.9684 -0.826884 -1.82752 -12.396 0.0266998 106.27 -5.34229 -92.5515 -41.0004 44.7935 -14.9992 -47.2028 -22.5965 1.28032 -1.65465 -7.55081 -21.5446 -162.887 46.8406 -5.93244 -5.31689 -34.3135 -5.2483 -0.913912 57.9111 -3.82144 -0.965268 26.367 -3.60229 176.064 6.46871 3.82092 -6.98184 -66.316 -5.76092 -175.365 75.8527 178.822 0.963561 26.3682 3.55536 
198.44 81.7663 -438.352 -2.12316 0.355459 -64.3459 -2.33507 2.78311 1.2816 -5.12414 19.4247 3.63235 -5.58707 26.0054 3.81012 7.51096 2.05967 4.6626 -8.05999 -39.8769 5.70045 -99.3176 -12.1406 90.7375 32.4643 53.5427 31.4306 31.2466 -17.7423 -0.822783 -1.82932 -13.2127 0.521497 106.625 -5.0896 -92.6431 -41.198 46.0043 -12.071 -48.3202 -22.7723 1.2916 -1.89637 -10.3059 -20.8099 -161.985 50.9367 -11.5562 -4.40483 -41.7773 -2.6962 -4.13631 57.2932 -0.677831 -0.965268 26.367 -3.60229 174.843 8.17255 4.33699 -9.3222 -70.8806 -8.18978 -174.683 80.0113 178.203 0.963561 26.3682 3.55536 
196.527 81.2103 -436.397 -1.01738 0.184106 -64.0027 -2.71999 3.09421 1.35674 -5.96636 20.0211 3.97545 -6.47562 26.5991 4.17573 6.30701 0.409086 4.37278 -7.64709 -40.716 4.9734 -99.8206 -11.4074 90.8826 36.9504 50.6472 28.8902 29.6886 -17.0282 -0.797973 -2.12124 -14.4747 -0.0250975 106.575 -4.58386 -92.7586 -41.562 46.714 -10.2322 -48.2298 -23.0806 1.30483 -2.36346 -13.5455 -17.4137 -161.343 53.4254 -15.9975 -3.88804 -47.429 -0.830323 -3.71638 59.0569 2.03038 -0.965268 26.367 -3.60229 173.621 11.1286 3.74943 -12.4716 -75.9277 -11.3447 -167.814 86.9712 171.342 0.963561 26.3682 3.55536 
194.822 80.9141 -434.565 0.367275 0.417147 -63.3322 -3.06338 3.27677 1.33455 -6.6975 20.3663 4.09577 -7.22367 26.9432 4.30542 5.81086 0.284435 4.09953 -6.7293 -42.0457 4.62101 -99.7412 -10.7765 90.9937 40.5827 48.4388 25.8911 28.2513 -16.7805 -0.792369 -1.73984 -15.5726 -0.088749 106.499 -4.11442 -92.8624 -43.3402 46.8081 -9.60395 -46.1358 -23.3584 1.3124 -1.51106 -16.0065 -11.7715 -161.845 55.8631 -16.1458 -5.23511 -51.7239 -1.8733 -1.75836 61.956 2.58361 -0.965268 26.367 -3.60229 172.066 15.7507 4.14812 -22.1393 -81.4369 -21.708 4.2699 83.9294 0.0265194 0.963561 26.3682 3.55536 
193.27 80.9557 -432.896 2.1594 1.03392 -62.568 -3.34628 3.37057 1.30531 -7.29454 20.5375 4.16957 -7.8309 27.1139 4.38455 5.71478 0.398785 3.88809 -6.2798 -43.5612 4.37459 -99.151 -9.81094 91.1403 43.2613 47.0276 21.9052 27.9492 -17.2323 -0.81412 -2.1068 -16.4911 1.25804 105.669 -3.90575 -92.8278 -45.733 46.9331 -8.62061 -44.7025 -23.3645 1.31628 -0.389271 -16.0921 -9.71576 -162.557 57.9887 -16.1069 -6.22099 -54.3091 -2.69301 -0.431114 64.1705 2.82733 -0.965268 26.367 -3.60229 170.554 21.5671 4.73452 -51.0363 -86.2597 -50.7737 3.56808 75.778 0.565478 0.963561 26.3682 3.55536 
191.881 81.0647 -431.447 3.34719 1.89964 -61.8371 -3.47295 3.60423 1.297 -7.57997 20.996 4.23081 -8.12642 27.5717 4.45379 5.85589 -0.10655 3.73456 -6.21032 -44.6686 4.16982 -98.6281 -8.83472 91.2809 45.3774 45.2879 18.4092 28.6823 -17.6377 -0.829558 -2.66196 -19.0101 0.093123 105.275 -3.11702 -92.9652 -46.9422 45.9477 -7.20157 -44.8588 -23.2318 1.31761 0.792127 -13.1494 -11.893 -162.883 59.5862 -16.9423 -5.4593 -56.5786 -1.72078 -0.236437 66.0778 3.65363 -0.965268 26.367 -3.60229 169.841 26.5858 6.16573 -132.068 -85.9957 -130.788 -1.48613 73.1372 3.7415 0.963561 26.3682 3.55536 
190.814 80.8161 -430.393 4.43469 2.3157 -60.8814 -3.5984 3.94662 1.20826 -7.85829 21.6773 4.13927 -8.39616 28.2538 4.36448 5.51945 -1.29506 3.5284 -5.6577 -45.1966 3.88548 -98.0989 -8.23261 91.3501 47.6897 43.1196 15.6574 29.666 -17.8881 -0.837008 -3.38263 -21.6421 -2.97502 105.304 -2.81817 -93.0355 -48.4017 43.763 -6.24186 -45.5485 -23.2112 1.31878 1.22648 -9.59179 -15.4735 -163.937 61.3431 -16.4159 -5.5529 -58.7429 -1.74491 0.0269392 67.6593 3.90265 -0.965268 26.367 -3.60229 168.381 30.6296 8.2579 -157.111 -82.1033 -155.578 -1.12272 78.3543 5.46247 0.963561 26.3682 3.55536 
189.766 80.6479 -429.418 5.50817 3.07514 -60.0324 -3.62546 4.22023 1.15201 -7.92948 22.2256 4.06379 -8.46025 28.8028 4.29061 4.97446 -2.37824 3.28179 -5.07322 -45.637 3.53954 -97.5714 -7.87956 91.3741 49.9506 41.0684 13.1167 30.4867 -18.0722 -0.842193 -3.22628 -23.9249 -5.32845 104.789 -2.34788 -93.0818 -49.9788 41.8127 -5.306 -45.9991 -23.4386 1.32101 0.602718 -7.65732 -17.9258 -164.333 62.9928 -16.2844 -5.97492 -60.5621 -2.0001 0.305284 69.1135 4.29981 -0.965268 26.367 -3.60229 167.281 34.7387 10.3815 -163.559 -79.6737 -163.317 1.97202 81.934 1.85046 0.963561 26.3682 3.55536 
188.854 80.3643 -428.605 6.74549 3.64791 -59.2668 -3.6897 4.43102 1.07176 -8.06869 22.6478 3.95026 -8.58661 29.226 4.17496 4.85382 -2.97102 3.03389 -4.80409 -46.1762 3.25508 -97.1713 -7.57176 91.3965 51.5792 39.0556 11.2779 31.012 -18.4362 -0.853357 -2.4687 -25.236 -6.29189 104.196 -1.6438 -93.1645 -51.2057 39.7648 -4.49812 -46.4174 -23.4371 1.31944 0.148734 -7.89949 -18.3857 -164.535 64.698 -16.7383 -6.39702 -62.2533 -2.14717 0.395655 70.399 4.86853 -0.965268 26.367 -3.60229 165.648 38.7391 12.876 -166.01 -78.442 -167.087 15.5201 84.9228 -10.3914 0.963561 26.3682 3.55536 
188.03 79.9564 -427.919 7.73865 4.08804 -58.5484 -3.71944 4.6411 1.03892 -8.14477 23.0675 3.91867 -8.66064 29.6459 4.14586 5.15184 -2.83084 2.74264 -4.9842 -47.0561 2.94511 -96.5398 -6.69626 91.4849 52.2089 37.5259 9.75649 31.929 -18.9992 -0.870069 -2.31964 -25.542 -6.69984 103.913 -1.15898 -93.2327 -52.3255 37.3838 -4.11333 -46.5463 -23.4235 1.31611 0.176428 -9.34852 -17.3386 -164.701 66.2634 -17.4402 -6.26334 -64.0782 -1.77536 0.296974 71.6559 5.57718 -0.965268 26.367 -3.60229 163.606 42.0348 16.2214 -167.075 -78.0474 -169.307 78.04 87.9152 -72.1403 0.963561 26.3682 3.55536 
